<svg width="533" height="90" viewBox="0 0 533 90" fill="none" xmlns="http://www.w3.org/2000/svg">
<circle cx="40" cy="33.4927" r="31" fill="#FFF4B9"/>
<circle cx="23" cy="64.4927" r="23" fill="#FFF4B9"/>
<circle cx="63" cy="56.4927" r="29" fill="#FFF4B9"/>
<ellipse cx="34" cy="50.9927" rx="10" ry="13.5" fill="#FFE661"/>
<path d="M493.836 79.985C493.086 79.985 492.711 79.61 492.711 78.86V21.125C492.711 20.375 493.086 20 493.836 20H521.286C522.006 20 522.606 20.24 523.086 20.72L532.086 29.72C532.596 30.23 532.851 30.83 532.851 31.52V68.42C532.851 69.14 532.596 69.74 532.086 70.22L523.086 79.22C522.606 79.73 522.006 79.985 521.286 79.985H493.836ZM507.741 67.97H515.976C517.236 67.97 517.866 67.13 517.866 65.45V34.535C517.866 32.825 517.236 31.97 515.976 31.97H507.741V67.97Z" fill="#FFF4B9"/>
<path d="M452.999 76.0001C452.309 76.0001 451.709 75.7451 451.199 75.2351L442.199 66.2351C441.689 65.7551 441.434 65.1551 441.434 64.4351V27.5351C441.434 26.8451 441.689 26.2451 442.199 25.7351L451.199 16.7351C451.709 16.2551 452.309 16.0151 452.999 16.0151H470.684C471.404 16.0151 472.004 16.2551 472.484 16.7351L481.484 25.7351C481.994 26.2451 482.249 26.8451 482.249 27.5351V64.4351C482.249 65.1551 481.994 65.7551 481.484 66.2351L472.484 75.2351C472.004 75.7451 471.404 76.0001 470.684 76.0001H452.999ZM458.309 63.9851H465.374C466.634 63.9851 467.264 63.1451 467.264 61.4651V30.5501C467.264 28.8401 466.634 27.9851 465.374 27.9851H458.309C457.079 27.9851 456.464 28.8401 456.464 30.5501V61.4651C456.464 63.1451 457.079 63.9851 458.309 63.9851Z" fill="#FFF4B9"/>
<path d="M401.405 59.985C400.715 59.985 400.115 59.73 399.605 59.22L390.605 50.22C390.095 49.74 389.84 49.14 389.84 48.42V11.52C389.84 10.83 390.095 10.23 390.605 9.72L399.605 0.720001C400.115 0.24 400.715 0 401.405 0H419.09C419.81 0 420.41 0.24 420.89 0.720001L429.89 9.72C430.4 10.23 430.655 10.83 430.655 11.52V48.42C430.655 49.14 430.4 49.74 429.89 50.22L420.89 59.22C420.41 59.73 419.81 59.985 419.09 59.985H401.405ZM406.715 47.97H413.78C415.04 47.97 415.67 47.13 415.67 45.45V14.535C415.67 12.825 415.04 11.97 413.78 11.97H406.715C405.485 11.97 404.87 12.825 404.87 14.535V45.45C404.87 47.13 405.485 47.97 406.715 47.97Z" fill="#FFF4B9"/>
<path d="M325.467 79.985C324.747 79.985 324.147 79.73 323.667 79.22L314.667 70.22C314.157 69.74 313.902 69.14 313.902 68.42V21.125C313.902 20.375 314.277 20 315.027 20H327.762C328.512 20 328.887 20.375 328.887 21.125V67.925H338.967V21.125C338.967 20.375 339.342 20 340.092 20H352.827C353.577 20 353.952 20.375 353.952 21.125V67.925H363.987V21.125C363.987 20.375 364.362 20 365.112 20H377.892C378.642 20 379.017 20.375 379.017 21.125V68.42C379.017 69.14 378.762 69.74 378.252 70.22L369.252 79.22C368.742 79.73 368.142 79.985 367.452 79.985H356.877C356.187 79.985 355.587 79.73 355.077 79.22L347.517 71.66H345.402L337.842 79.22C337.332 79.73 336.732 79.985 336.042 79.985H325.467Z" fill="#FFF4B9"/>
<path d="M264.441 89.985C263.691 89.985 263.316 89.61 263.316 88.86V47.145C263.316 46.755 263.466 46.305 263.766 45.795L274.431 30.675C274.761 30.225 275.241 30 275.871 30H290.766C291.426 30 291.906 30.225 292.206 30.675L302.916 45.795C303.216 46.215 303.366 46.665 303.366 47.145V88.86C303.366 89.61 302.991 89.985 302.241 89.985H289.506C288.756 89.985 288.381 89.61 288.381 88.86V69.735H278.346V88.86C278.346 89.61 277.971 89.985 277.221 89.985H264.441ZM283.341 60.06C286.101 60.06 287.961 59.46 288.921 58.26C289.911 57.03 290.406 54.705 290.406 51.285C290.406 47.865 289.911 45.555 288.921 44.355C287.961 43.125 286.101 42.51 283.341 42.51C280.611 42.51 278.751 43.125 277.761 44.355C276.801 45.555 276.321 47.865 276.321 51.285C276.321 54.705 276.801 57.03 277.761 58.26C278.751 59.46 280.611 60.06 283.341 60.06Z" fill="#FFF4B9"/>
<path d="M229.984 76.0001C229.234 76.0001 228.859 75.6251 228.859 74.8751V27.9851H220.984C220.234 27.9851 219.859 27.6101 219.859 26.8601V17.1401C219.859 16.3901 220.234 16.0151 220.984 16.0151H251.719C252.469 16.0151 252.844 16.3901 252.844 17.1401V26.8601C252.844 27.6101 252.469 27.9851 251.719 27.9851H243.844V74.8751C243.844 75.6251 243.469 76.0001 242.719 76.0001H229.984Z" fill="#FFF4B9"/>
<path d="M170.398 64.985C169.648 64.985 169.273 64.61 169.273 63.86V22.145C169.273 21.755 169.423 21.305 169.723 20.795L180.388 5.675C180.718 5.225 181.198 5 181.828 5H196.723C197.383 5 197.863 5.225 198.163 5.675L208.873 20.795C209.173 21.215 209.323 21.665 209.323 22.145V63.86C209.323 64.61 208.948 64.985 208.198 64.985H195.463C194.713 64.985 194.338 64.61 194.338 63.86V44.735H184.303V63.86C184.303 64.61 183.928 64.985 183.178 64.985H170.398ZM189.298 35.06C192.058 35.06 193.918 34.46 194.878 33.26C195.868 32.03 196.363 29.705 196.363 26.285C196.363 22.865 195.868 20.555 194.878 19.355C193.918 18.125 192.058 17.51 189.298 17.51C186.568 17.51 184.708 18.125 183.718 19.355C182.758 20.555 182.278 22.865 182.278 26.285C182.278 29.705 182.758 32.03 183.718 33.26C184.708 34.46 186.568 35.06 189.298 35.06Z" fill="#FFF4B9"/>
<path d="M120.125 79.985C119.375 79.985 119 79.61 119 78.86V21.125C119 20.375 119.375 20 120.125 20H147.575C148.295 20 148.895 20.24 149.375 20.72L158.375 29.72C158.885 30.23 159.14 30.83 159.14 31.52V68.42C159.14 69.14 158.885 69.74 158.375 70.22L149.375 79.22C148.895 79.73 148.295 79.985 147.575 79.985H120.125ZM134.03 67.97H142.265C143.525 67.97 144.155 67.13 144.155 65.45V34.535C144.155 32.825 143.525 31.97 142.265 31.97H134.03V67.97Z" fill="#FFF4B9"/>
</svg>
