<svg width="532" height="90" viewBox="0 0 532 90" fill="none" xmlns="http://www.w3.org/2000/svg">
<g clip-path="url(#clip0_399_1672)">
<path d="M41.5366 61.8563C57.4199 61.8563 70.2959 48.7912 70.2959 32.6745C70.2959 16.5578 57.4199 3.49268 41.5366 3.49268C25.6533 3.49268 12.7773 16.5578 12.7773 32.6745C12.7773 48.7912 25.6533 61.8563 41.5366 61.8563Z" fill="#FFF4B9"/>
<path d="M23.935 83.4577C37.154 83.4577 47.8701 72.5842 47.8701 59.171C47.8701 45.7578 37.154 34.8843 23.935 34.8843C10.7161 34.8843 0 45.7578 0 59.171C0 72.5842 10.7161 83.4577 23.935 83.4577Z" fill="#FFF4B9"/>
<path d="M62.0823 86.4925C76.9531 86.4925 89.0083 74.2601 89.0083 59.1708C89.0083 44.0815 76.9531 31.8491 62.0823 31.8491C47.2115 31.8491 35.1562 44.0815 35.1562 59.1708C35.1562 74.2601 47.2115 86.4925 62.0823 86.4925Z" fill="#FFF4B9"/>
<path d="M35.6304 59.3947C34.9756 59.3947 34.3898 58.9122 34.2727 58.2338C33.6524 54.6254 34.6311 50.7723 36.8916 47.9191C38.9315 45.3387 41.9777 43.6184 45.203 43.1849C46.1954 39.6184 48.5662 36.4226 51.695 34.5066C55.1202 32.4087 59.4551 31.8422 63.2938 32.9821C64.0244 33.1989 64.4447 33.9751 64.2311 34.7164C64.0175 35.4576 63.2525 35.8842 62.522 35.6674C59.4138 34.7443 55.899 35.1989 53.1216 36.8982C50.3442 38.5975 48.3043 41.5345 47.6634 44.7583C47.5393 45.3877 47.0086 45.8492 46.3746 45.8772C43.549 46.0101 40.8061 47.4226 39.0418 49.6604C37.2706 51.8982 36.5056 54.9191 36.988 57.7443C37.119 58.5066 36.6159 59.2268 35.8647 59.3597C35.782 59.3737 35.7062 59.3807 35.6304 59.3807V59.3947Z" fill="#EFD055"/>
<path d="M36.6832 51.8841C36.1664 51.8841 35.6702 51.5903 35.4358 51.0869C33.9265 47.8561 31.3559 45.2057 28.1995 43.6113C25.0431 42.0169 21.4111 41.5484 17.9584 42.2757C17.2072 42.4365 16.4835 41.947 16.325 41.1917C16.1734 40.4365 16.6489 39.6952 17.3933 39.5344C21.4456 38.6813 25.7185 39.2407 29.4193 41.1078C33.1271 42.975 36.1388 46.0938 37.9169 49.891C38.2408 50.5903 37.9513 51.4225 37.2622 51.7512C37.0692 51.8421 36.8693 51.8841 36.6695 51.8841H36.6832Z" fill="#EFD055"/>
<path d="M35.2922 36.1083C38.1799 34.8355 41.6671 35.0803 44.348 36.7446C45.685 37.5768 46.8841 38.8635 47.0495 40.4439C47.1943 41.8215 46.5051 43.1852 45.5403 44.1712C44.5754 45.1572 43.3487 45.8215 42.1426 46.4789C39.7925 47.7516 38.4762 48.9824 35.9538 48.1152C33.9552 47.4299 29.6755 44.5698 29.7995 42.381C29.9511 39.7586 33.1489 37.0523 35.2922 36.1083Z" fill="#EFD055"/>
</g>
<path d="M492.836 79.985C492.086 79.985 491.711 79.61 491.711 78.86V21.125C491.711 20.375 492.086 20 492.836 20H520.286C521.006 20 521.606 20.24 522.086 20.72L531.086 29.72C531.596 30.23 531.851 30.83 531.851 31.52V68.42C531.851 69.14 531.596 69.74 531.086 70.22L522.086 79.22C521.606 79.73 521.006 79.985 520.286 79.985H492.836ZM506.741 67.97H514.976C516.236 67.97 516.866 67.13 516.866 65.45V34.535C516.866 32.825 516.236 31.97 514.976 31.97H506.741V67.97Z" fill="#FFF4B9"/>
<path d="M451.999 76.0001C451.309 76.0001 450.709 75.7451 450.199 75.2351L441.199 66.2351C440.689 65.7551 440.434 65.1551 440.434 64.4351V27.5351C440.434 26.8451 440.689 26.2451 441.199 25.7351L450.199 16.7351C450.709 16.2551 451.309 16.0151 451.999 16.0151H469.684C470.404 16.0151 471.004 16.2551 471.484 16.7351L480.484 25.7351C480.994 26.2451 481.249 26.8451 481.249 27.5351V64.4351C481.249 65.1551 480.994 65.7551 480.484 66.2351L471.484 75.2351C471.004 75.7451 470.404 76.0001 469.684 76.0001H451.999ZM457.309 63.9851H464.374C465.634 63.9851 466.264 63.1451 466.264 61.4651V30.5501C466.264 28.8401 465.634 27.9851 464.374 27.9851H457.309C456.079 27.9851 455.464 28.8401 455.464 30.5501V61.4651C455.464 63.1451 456.079 63.9851 457.309 63.9851Z" fill="#FFF4B9"/>
<path d="M400.405 59.985C399.715 59.985 399.115 59.73 398.605 59.22L389.605 50.22C389.095 49.74 388.84 49.14 388.84 48.42V11.52C388.84 10.83 389.095 10.23 389.605 9.72L398.605 0.720001C399.115 0.24 399.715 0 400.405 0H418.09C418.81 0 419.41 0.24 419.89 0.720001L428.89 9.72C429.4 10.23 429.655 10.83 429.655 11.52V48.42C429.655 49.14 429.4 49.74 428.89 50.22L419.89 59.22C419.41 59.73 418.81 59.985 418.09 59.985H400.405ZM405.715 47.97H412.78C414.04 47.97 414.67 47.13 414.67 45.45V14.535C414.67 12.825 414.04 11.97 412.78 11.97H405.715C404.485 11.97 403.87 12.825 403.87 14.535V45.45C403.87 47.13 404.485 47.97 405.715 47.97Z" fill="#FFF4B9"/>
<path d="M324.467 79.985C323.747 79.985 323.147 79.73 322.667 79.22L313.667 70.22C313.157 69.74 312.902 69.14 312.902 68.42V21.125C312.902 20.375 313.277 20 314.027 20H326.762C327.512 20 327.887 20.375 327.887 21.125V67.925H337.967V21.125C337.967 20.375 338.342 20 339.092 20H351.827C352.577 20 352.952 20.375 352.952 21.125V67.925H362.987V21.125C362.987 20.375 363.362 20 364.112 20H376.892C377.642 20 378.017 20.375 378.017 21.125V68.42C378.017 69.14 377.762 69.74 377.252 70.22L368.252 79.22C367.742 79.73 367.142 79.985 366.452 79.985H355.877C355.187 79.985 354.587 79.73 354.077 79.22L346.517 71.66H344.402L336.842 79.22C336.332 79.73 335.732 79.985 335.042 79.985H324.467Z" fill="#FFF4B9"/>
<path d="M263.441 89.985C262.691 89.985 262.316 89.61 262.316 88.86V47.145C262.316 46.755 262.466 46.305 262.766 45.795L273.431 30.675C273.761 30.225 274.241 30 274.871 30H289.766C290.426 30 290.906 30.225 291.206 30.675L301.916 45.795C302.216 46.215 302.366 46.665 302.366 47.145V88.86C302.366 89.61 301.991 89.985 301.241 89.985H288.506C287.756 89.985 287.381 89.61 287.381 88.86V69.735H277.346V88.86C277.346 89.61 276.971 89.985 276.221 89.985H263.441ZM282.341 60.06C285.101 60.06 286.961 59.46 287.921 58.26C288.911 57.03 289.406 54.705 289.406 51.285C289.406 47.865 288.911 45.555 287.921 44.355C286.961 43.125 285.101 42.51 282.341 42.51C279.611 42.51 277.751 43.125 276.761 44.355C275.801 45.555 275.321 47.865 275.321 51.285C275.321 54.705 275.801 57.03 276.761 58.26C277.751 59.46 279.611 60.06 282.341 60.06Z" fill="#FFF4B9"/>
<path d="M228.984 76.0001C228.234 76.0001 227.859 75.6251 227.859 74.8751V27.9851H219.984C219.234 27.9851 218.859 27.6101 218.859 26.8601V17.1401C218.859 16.3901 219.234 16.0151 219.984 16.0151H250.719C251.469 16.0151 251.844 16.3901 251.844 17.1401V26.8601C251.844 27.6101 251.469 27.9851 250.719 27.9851H242.844V74.8751C242.844 75.6251 242.469 76.0001 241.719 76.0001H228.984Z" fill="#FFF4B9"/>
<path d="M169.398 64.985C168.648 64.985 168.273 64.61 168.273 63.86V22.145C168.273 21.755 168.423 21.305 168.723 20.795L179.388 5.675C179.718 5.225 180.198 5 180.828 5H195.723C196.383 5 196.863 5.225 197.163 5.675L207.873 20.795C208.173 21.215 208.323 21.665 208.323 22.145V63.86C208.323 64.61 207.948 64.985 207.198 64.985H194.463C193.713 64.985 193.338 64.61 193.338 63.86V44.735H183.303V63.86C183.303 64.61 182.928 64.985 182.178 64.985H169.398ZM188.298 35.06C191.058 35.06 192.918 34.46 193.878 33.26C194.868 32.03 195.363 29.705 195.363 26.285C195.363 22.865 194.868 20.555 193.878 19.355C192.918 18.125 191.058 17.51 188.298 17.51C185.568 17.51 183.708 18.125 182.718 19.355C181.758 20.555 181.278 22.865 181.278 26.285C181.278 29.705 181.758 32.03 182.718 33.26C183.708 34.46 185.568 35.06 188.298 35.06Z" fill="#FFF4B9"/>
<path d="M119.125 79.985C118.375 79.985 118 79.61 118 78.86V21.125C118 20.375 118.375 20 119.125 20H146.575C147.295 20 147.895 20.24 148.375 20.72L157.375 29.72C157.885 30.23 158.14 30.83 158.14 31.52V68.42C158.14 69.14 157.885 69.74 157.375 70.22L148.375 79.22C147.895 79.73 147.295 79.985 146.575 79.985H119.125ZM133.03 67.97H141.265C142.525 67.97 143.155 67.13 143.155 65.45V34.535C143.155 32.825 142.525 31.97 141.265 31.97H133.03V67.97Z" fill="#FFF4B9"/>
<defs>
<clipPath id="clip0_399_1672">
<rect width="89" height="83" fill="white" transform="translate(0 3.49268)"/>
</clipPath>
</defs>
</svg>
