<svg width="587" height="953" viewBox="0 0 587 953" fill="none" xmlns="http://www.w3.org/2000/svg">
<path fill-rule="evenodd" clip-rule="evenodd" d="M296.541 80.6143C296.822 78.3555 296.886 76.0562 296.713 73.7343C295.076 51.6726 272.786 35.9315 246.926 38.5755C225.614 40.7546 208.529 54.7413 204.096 71.9429C201.431 71.2416 198.658 70.7475 195.804 70.4795C186.821 59.3711 171.096 52.8878 153.768 54.6595C127.909 57.3035 108.273 77.3314 109.91 99.3931C109.918 99.4923 109.925 99.5914 109.934 99.6903L109.929 99.6908C84.0696 102.335 64.4337 122.363 66.071 144.424C67.7083 166.486 89.9987 182.227 115.858 179.583C119.52 179.209 123.057 178.486 126.426 177.458C129.336 198.35 150.991 212.96 175.978 210.405C193.814 208.582 208.689 198.488 215.665 185.161C221.036 186.357 226.805 186.724 232.763 186.114C236.503 185.732 240.113 184.986 243.547 183.923C252.475 189.962 264.222 193.035 276.815 191.747C299.155 189.463 316.85 174.205 320.197 155.87C337.084 148.238 348.262 132.563 347.011 115.699C345.373 93.6375 323.083 77.8964 297.224 80.5404C296.996 80.5637 296.768 80.5883 296.541 80.6143Z" fill="#AA9B45"/>
<g filter="url(#filter0_i_240_1959)">
<path fill-rule="evenodd" clip-rule="evenodd" d="M527.277 91.0116C528.032 88.9271 528.575 86.7403 528.885 84.4633C531.83 62.8251 512.594 41.229 485.92 36.2271C463.936 32.1048 443.761 40.5404 435.697 55.7476C433.151 54.298 430.452 53.0156 427.625 51.9265C420.867 38.6532 406.332 27.8508 388.459 24.4991C361.784 19.4972 337.773 32.9836 334.828 54.6218C334.815 54.7189 334.802 54.8161 334.79 54.9133L334.783 54.9122C308.109 49.9103 284.098 63.3967 281.153 85.0348C278.208 106.673 297.444 128.269 324.118 133.271C327.895 133.979 331.619 134.317 335.237 134.313C333.822 155.2 352.652 175.526 378.426 180.359C396.823 183.809 413.954 178.464 423.78 167.715C428.956 170.427 434.707 172.461 440.853 173.613C444.711 174.337 448.514 174.673 452.205 174.655C459.964 183.05 471.19 189.421 484.18 191.857C507.224 196.178 528.281 186.701 535.484 170.09C554.134 167.693 568.695 155.916 570.946 139.375C573.891 117.737 554.655 96.1411 527.98 91.1392C527.746 91.0952 527.511 91.0527 527.277 91.0116Z" fill="#FFE661"/>
</g>
<g filter="url(#filter1_i_240_1959)">
<path fill-rule="evenodd" clip-rule="evenodd" d="M533.557 108.007C534.058 104.267 534.319 100.423 534.319 96.5C534.319 59.2208 510.734 29 481.64 29C457.662 29 437.426 49.5264 431.05 77.6137C428.13 75.9795 425.072 74.6746 421.905 73.7357C412.795 53.5678 395.774 40 376.28 40C347.186 40 323.6 70.2208 323.6 107.5C323.6 107.667 323.601 107.833 323.602 108H323.601C294.507 108 270.922 138.221 270.922 175.5C270.922 212.779 294.507 243 323.601 243C327.721 243 331.73 242.394 335.578 241.248C337.095 276.784 360.065 305 388.177 305C408.244 305 425.691 290.623 434.585 269.469C440.483 272.395 446.895 274 453.6 274C457.806 274 461.897 273.368 465.818 272.175C475.285 283.834 488.147 291 502.315 291C527.449 291 548.472 268.445 553.729 238.27C573.217 228.367 586.997 203.996 586.997 175.5C586.997 138.221 563.412 108 534.318 108C534.064 108 533.81 108.002 533.557 108.007Z" fill="#FFE661"/>
</g>
<path fill-rule="evenodd" clip-rule="evenodd" d="M45.8059 108.007C45.3763 104.267 45.1525 100.423 45.1525 96.5C45.1525 59.2208 65.3686 29 90.3064 29C110.859 29 128.204 49.5263 133.669 77.6134C136.171 75.9795 138.792 74.6748 141.506 73.736C149.315 53.5679 163.905 40 180.614 40C205.552 40 225.768 70.2208 225.768 107.5C225.768 107.667 225.768 107.833 225.767 108H225.768C250.706 108 270.922 138.221 270.922 175.5C270.922 212.779 250.706 243 225.768 243C222.237 243 218.8 242.394 215.503 241.248C214.202 276.784 194.514 305 170.417 305C153.217 305 138.262 290.623 130.639 269.468C125.583 272.395 120.086 274 114.339 274C110.735 274 107.229 273.369 103.868 272.176C95.7528 283.834 84.7287 291 72.585 291C51.0412 291 33.0213 268.446 28.5154 238.27C11.811 228.368 -0.00140381 203.996 -0.00140381 175.5C-0.00140381 138.221 20.2147 108 45.1525 108C45.3707 108 45.5885 108.002 45.8059 108.007Z" fill="#E1CB55"/>
<path d="M0 187C0 175.954 8.95431 167 20 167H25.1539C36.1996 167 45.1539 175.954 45.1539 187V1169H0V187Z" fill="#686767"/>
<path d="M0 187C0 175.954 8.95431 167 20 167H25.1539C36.1996 167 45.1539 175.954 45.1539 187V1169H0V187Z" fill="#686767"/>
<path d="M45.1562 187C45.1562 175.954 54.1106 167 65.1563 167H70.3101C81.3558 167 90.3101 175.954 90.3101 187V1169H45.1562V187Z" fill="#613434"/>
<path d="M90.3086 187C90.3086 175.954 99.2629 167 110.309 167H115.462C126.508 167 135.462 175.954 135.462 187V1169H90.3086V187Z" fill="#686767"/>
<path d="M90.3086 187C90.3086 175.954 99.2629 167 110.309 167H115.462C126.508 167 135.462 175.954 135.462 187V1169H90.3086V187Z" fill="#686767"/>
<path d="M135.461 187C135.461 175.954 144.415 167 155.461 167H160.615C171.661 167 180.615 175.954 180.615 187V1169H135.461V187Z" fill="#613434"/>
<path d="M180.613 187C180.613 175.954 189.568 167 200.613 167H205.767C216.813 167 225.767 175.954 225.767 187V1169H180.613V187Z" fill="#686767"/>
<path d="M180.613 187C180.613 175.954 189.568 167 200.613 167H205.767C216.813 167 225.767 175.954 225.767 187V1169H180.613V187Z" fill="#686767"/>
<path d="M225.77 187C225.77 175.954 234.724 167 245.77 167H250.923C261.969 167 270.923 175.954 270.923 187V1169H225.77V187Z" fill="#613434"/>
<path d="M270.926 187C270.926 175.954 279.88 167 290.926 167H296.08C307.125 167 316.08 175.954 316.08 187V1169H270.926V187Z" fill="white"/>
<path d="M270.926 187C270.926 175.954 279.88 167 290.926 167H296.08C307.125 167 316.08 175.954 316.08 187V1169H270.926V187Z" fill="white"/>
<path d="M316.074 187C316.074 175.954 325.029 167 336.074 167H341.228C352.274 167 361.228 175.954 361.228 187V1169H316.074V187Z" fill="#C15E5E"/>
<path d="M361.23 187C361.23 175.954 370.185 167 381.23 167H386.384C397.43 167 406.384 175.954 406.384 187V1169H361.23V187Z" fill="white"/>
<path d="M361.23 187C361.23 175.954 370.185 167 381.23 167H386.384C397.43 167 406.384 175.954 406.384 187V1169H361.23V187Z" fill="white"/>
<path d="M406.387 187C406.387 175.954 415.341 167 426.387 167H431.541C442.586 167 451.541 175.954 451.541 187V1169H406.387V187Z" fill="#C15E5E"/>
<path d="M451.539 187C451.539 175.954 460.493 167 471.539 167H476.693C487.739 167 496.693 175.954 496.693 187V1169H451.539V187Z" fill="white"/>
<path d="M451.539 187C451.539 175.954 460.493 167 471.539 167H476.693C487.739 167 496.693 175.954 496.693 187V1169H451.539V187Z" fill="white"/>
<path d="M496.691 187C496.691 175.954 505.646 167 516.691 167H521.845C532.891 167 541.845 175.954 541.845 187V1169H496.691V187Z" fill="#C15E5E"/>
<path d="M541.848 187C541.848 175.954 550.802 167 561.848 167H567.002C578.047 167 587.002 175.954 587.002 187V1169H541.848V187Z" fill="white"/>
<path d="M541.848 187C541.848 175.954 550.802 167 561.848 167H567.002C578.047 167 587.002 175.954 587.002 187V1169H541.848V187Z" fill="white"/>
<defs>
<filter id="filter0_i_240_1959" x="280.855" y="23.457" width="320.387" height="184.442" filterUnits="userSpaceOnUse" color-interpolation-filters="sRGB">
<feFlood flood-opacity="0" result="BackgroundImageFix"/>
<feBlend mode="normal" in="SourceGraphic" in2="BackgroundImageFix" result="shape"/>
<feColorMatrix in="SourceAlpha" type="matrix" values="0 0 0 0 0 0 0 0 0 0 0 0 0 0 0 0 0 0 127 0" result="hardAlpha"/>
<feOffset dx="30" dy="15"/>
<feGaussianBlur stdDeviation="25"/>
<feComposite in2="hardAlpha" operator="arithmetic" k2="-1" k3="1"/>
<feColorMatrix type="matrix" values="0 0 0 0 1 0 0 0 0 1 0 0 0 0 1 0 0 0 0.5 0"/>
<feBlend mode="normal" in2="shape" result="effect1_innerShadow_240_1959"/>
</filter>
<filter id="filter1_i_240_1959" x="270.922" y="29" width="346.074" height="291" filterUnits="userSpaceOnUse" color-interpolation-filters="sRGB">
<feFlood flood-opacity="0" result="BackgroundImageFix"/>
<feBlend mode="normal" in="SourceGraphic" in2="BackgroundImageFix" result="shape"/>
<feColorMatrix in="SourceAlpha" type="matrix" values="0 0 0 0 0 0 0 0 0 0 0 0 0 0 0 0 0 0 127 0" result="hardAlpha"/>
<feOffset dx="30" dy="15"/>
<feGaussianBlur stdDeviation="25"/>
<feComposite in2="hardAlpha" operator="arithmetic" k2="-1" k3="1"/>
<feColorMatrix type="matrix" values="0 0 0 0 1 0 0 0 0 1 0 0 0 0 1 0 0 0 0.5 0"/>
<feBlend mode="normal" in2="shape" result="effect1_innerShadow_240_1959"/>
</filter>
</defs>
</svg>
